<?xml version="1.0" ?><svg fill="none" height="24" viewBox="0 0 24 24" width="24" xmlns="http://www.w3.org/2000/svg"><path clip-rule="evenodd" d="M10.2361 4.5C9.66791 4.5 9.14852 4.821 8.89443 5.32918L8.5 6.11803C8.07652 6.96499 7.21086 7.5 6.26393 7.5H5C4.17157 7.5 3.5 8.17157 3.5 9V18C3.5 18.8284 4.17157 19.5 5 19.5H19C19.8284 19.5 20.5 18.8284 20.5 18V9C20.5 8.17157 19.8284 7.5 19 7.5H17.7361C16.7891 7.5 15.9235 6.96499 15.5 6.11803L15.1056 5.32918C14.8515 4.821 14.3321 4.5 13.7639 4.5H10.2361ZM8 4.88197C8.42348 4.03501 9.28914 3.5 10.2361 3.5H13.7639C14.7109 3.5 15.5765 4.03501 16 4.88197L16.3944 5.67082C16.6485 6.179 17.1679 6.5 17.7361 6.5H19C20.3807 6.5 21.5 7.61929 21.5 9V18C21.5 19.3807 20.3807 20.5 19 20.5H5C3.61929 20.5 2.5 19.3807 2.5 18V9C2.5 7.61929 3.61929 6.5 5 6.5H6.26393C6.83209 6.5 7.35148 6.179 7.60557 5.67082L8 4.88197Z" fill="black" fill-rule="evenodd"/><path clip-rule="evenodd" d="M11.5 16V8H12.5V16H11.5Z" fill="black" fill-rule="evenodd"/><path clip-rule="evenodd" d="M16 12.5H8V11.5H16V12.5Z" fill="black" fill-rule="evenodd"/></svg>